<svg width="27" height="32" viewBox="0 0 27 32" fill="none" xmlns="http://www.w3.org/2000/svg">
<rect width="27" height="32" rx="3" fill="white"/>
<path d="M16.6219 16.3376V14.7083C16.6219 14.156 16.1741 13.7083 15.6219 13.7083H10.9712C10.4189 13.7083 9.97119 14.156 9.97119 14.7083V16.3376" stroke="#052754" stroke-width="0.6" stroke-linecap="round"/>
<path d="M12.7098 1.76983C4.40591 9.84707 3.28022 2.25702 3.19646 17.2841C3.19165 18.1478 4.21207 18.6234 4.85659 18.0484L8.34726 14.9347C8.55996 14.745 8.68159 14.4735 8.68159 14.1884V10.744C8.68159 8.24356 18.142 8.19201 18.142 10.744V14.1815C18.142 14.4706 18.2671 14.7455 18.485 14.9354L22.1046 18.09C22.7516 18.6539 23.7602 18.1768 23.7522 17.3186C23.6129 2.26367 21.8557 9.83485 14.2095 1.79912C13.8077 1.37685 13.1276 1.36341 12.7098 1.76983Z" fill="url(#paint0_linear_2789_18)" stroke="#052754" stroke-width="0.6"/>
<path d="M18.5288 29V26.9014C18.5288 26.3491 18.9803 25.8947 19.522 26.0021C21.2423 26.343 22.9292 27.5172 23.461 29.0197C23.6453 29.5403 23.1851 30 22.6328 30H19.5288C18.9765 30 18.5288 29.5523 18.5288 29Z" fill="url(#paint1_linear_2789_18)" stroke="#74AE57" stroke-width="0.6"/>
<path d="M8.26953 28.8453V26.7466C8.26953 26.1943 7.81805 25.7399 7.27631 25.8473C5.55605 26.1882 3.86911 27.3624 3.33733 28.8649C3.15307 29.3855 3.61324 29.8453 4.16553 29.8453H7.26953C7.82182 29.8453 8.26953 29.3975 8.26953 28.8453Z" fill="url(#paint2_linear_2789_18)" stroke="#74AE57" stroke-width="0.6"/>
<path d="M5.10565 21.8736L9.3441 20.5264C10.0789 20.2928 10.7904 20.9435 10.6232 21.6962L10.2375 23.4327C10.1587 23.7875 9.89362 24.0716 9.54513 24.1748L3.6313 25.9252C2.64658 26.2167 1.91482 25.0122 2.62728 24.2725L4.68837 22.1329C4.80374 22.0131 4.94716 21.924 5.10565 21.8736Z" fill="white" stroke="#052754" stroke-width="0.6"/>
<path d="M21.8944 21.8736L17.6559 20.5264C16.9211 20.2928 16.2096 20.9435 16.3768 21.6962L16.7625 23.4327C16.8413 23.7875 17.1064 24.0716 17.4549 24.1748L23.3687 25.9252C24.3534 26.2167 25.0852 25.0122 24.3727 24.2725L22.3116 22.1329C22.1963 22.0131 22.0528 21.924 21.8944 21.8736Z" fill="white" stroke="#052754" stroke-width="0.6"/>
<path d="M6.84173 18.8016L6.50562 19.2262C6.2612 19.5349 6.28422 19.9772 6.55937 20.2589C6.88188 20.5891 7.41863 20.5699 7.71677 20.2175L9.14568 18.5288C9.76435 17.7555 8.93946 17.2657 8.50124 17.7555L8.36736 17.9061C8.19788 18.0968 7.88257 17.9769 7.88257 17.7218C7.88257 17.6601 7.90314 17.6002 7.94101 17.5515L8.60435 16.6986C9.11991 16.1057 8.44968 15.487 7.9599 15.9768L7.31344 16.6972C7.14876 16.8807 7.05768 17.1185 7.05768 17.3651V18.1809C7.05768 18.4062 6.98159 18.6249 6.84173 18.8016Z" fill="white" stroke="#052754" stroke-width="0.6"/>
<path d="M19.9717 18.8016L20.3079 19.2262C20.5523 19.5349 20.5293 19.9772 20.2541 20.2589C19.9316 20.5891 19.3949 20.5699 19.0967 20.2175L17.6678 18.5288C17.0491 17.7555 17.874 17.2657 18.3122 17.7555L18.4461 17.9061C18.6156 18.0968 18.9309 17.9769 18.9309 17.7218C18.9309 17.6601 18.9103 17.6002 18.8725 17.5515L18.2091 16.6986C17.6936 16.1057 18.3638 15.487 18.8536 15.9768L19.5 16.6972C19.6647 16.8807 19.7558 17.1185 19.7558 17.3651V18.1809C19.7558 18.4062 19.8319 18.6249 19.9717 18.8016Z" fill="white" stroke="#052754" stroke-width="0.6"/>
<path d="M7.55627 20.1356L6.72832 19.3076C6.33993 18.9192 5.71099 18.9168 5.31961 19.3021L1.2984 23.2615C1.1075 23.4495 0.990352 23.708 1.03337 23.9725C1.19628 24.9737 1.94189 25.7481 2.96802 25.9179C3.23941 25.9628 3.50438 25.8393 3.69329 25.6394L7.57607 21.5294C7.94775 21.136 7.93897 20.5183 7.55627 20.1356Z" fill="white" stroke="#052754" stroke-width="0.6"/>
<path d="M19.3456 20.1356L20.1735 19.3076C20.5619 18.9192 21.1909 18.9168 21.5822 19.3021L25.6035 23.2615C25.7944 23.4495 25.9115 23.708 25.8685 23.9725C25.7056 24.9737 24.96 25.7481 23.9338 25.9179C23.6624 25.9628 23.3975 25.8393 23.2086 25.6394L19.3258 21.5294C18.9541 21.136 18.9629 20.5183 19.3456 20.1356Z" fill="white" stroke="#052754" stroke-width="0.6"/>
<path d="M10.2798 16.6981V14.3218C10.2798 13.7695 10.7275 13.3218 11.2798 13.3218H15.3118C15.8641 13.3218 16.3118 13.7695 16.3118 14.3218V16.7121C16.3118 16.8916 16.2625 17.0702 16.1697 17.2238C13.9427 20.912 12.8493 20.9998 10.4356 17.232C10.3341 17.0734 10.2798 16.8864 10.2798 16.6981Z" fill="white" stroke="#052754" stroke-width="0.6"/>
<path d="M9.76416 11.2855V13.2241C9.76416 13.7764 10.2119 14.2241 10.7642 14.2241H15.8273C16.3796 14.2241 16.8273 13.7764 16.8273 13.2241V11.2855C16.8273 9.79035 9.76416 9.91923 9.76416 11.2855Z" fill="url(#paint3_linear_2789_18)" stroke="#052754" stroke-width="0.6"/>
<path d="M16.3431 29.9999H10.4551C9.90279 29.9999 9.45508 29.5522 9.45508 28.9999V21.7642C9.45508 21.6869 9.46383 21.6097 9.48242 21.5347C9.6781 20.7456 9.89863 20.3357 10.6608 19.9465C10.9758 19.7857 11.3536 19.8476 11.633 20.0644L12.4067 20.6647C12.5821 20.8008 12.7978 20.8746 13.0197 20.8746H13.6657C13.8936 20.8746 14.1146 20.7968 14.2921 20.6541L15.0134 20.0746C15.2907 19.8517 15.6703 19.7841 15.99 19.9402C16.6784 20.2762 16.9862 20.6559 17.2884 21.4916C17.3256 21.5944 17.3431 21.7037 17.3431 21.813V28.9999C17.3431 29.5522 16.8954 29.9999 16.3431 29.9999Z" fill="white" stroke="#052754" stroke-width="0.6"/>
<path d="M12.9351 25.5148V23.1947M12.9351 23.1947V21.2356C12.9351 21.0363 13.0966 20.8748 13.2959 20.8748V20.8748C13.4953 20.8748 13.6568 21.0363 13.6568 21.2356V22.202C13.6568 22.5608 13.4646 22.8922 13.153 23.0702L12.9351 23.1947Z" stroke="#052754" stroke-width="0.6" stroke-linecap="round"/>
<defs>
<linearGradient id="paint0_linear_2789_18" x1="13.4763" y1="1" x2="13.4763" y2="19.5342" gradientUnits="userSpaceOnUse">
<stop stop-color="#175085"/>
<stop offset="1" stop-color="#202962"/>
</linearGradient>
<linearGradient id="paint1_linear_2789_18" x1="21.0808" y1="25.9014" x2="21.0808" y2="30" gradientUnits="userSpaceOnUse">
<stop stop-color="#8EB366"/>
<stop offset="1" stop-color="#67AE52"/>
</linearGradient>
<linearGradient id="paint2_linear_2789_18" x1="5.71753" y1="25.7466" x2="5.71753" y2="29.8453" gradientUnits="userSpaceOnUse">
<stop stop-color="#8EB366"/>
<stop offset="1" stop-color="#67AE52"/>
</linearGradient>
<linearGradient id="paint3_linear_2789_18" x1="13.2957" y1="10.2119" x2="13.2957" y2="14.2241" gradientUnits="userSpaceOnUse">
<stop stop-color="#1A3B72"/>
<stop offset="1" stop-color="#1C336B"/>
</linearGradient>
</defs>
</svg>
